<svg width="773" height="695" viewBox="0 0 773 695" fill="none" xmlns="http://www.w3.org/2000/svg">
<path d="M487.247 330.349L489.109 331.08L487.247 330.349ZM501.35 291.84L503.252 292.457L504.241 289.409L501.068 289.86L501.35 291.84ZM471.646 376.598L469.702 376.128L469.58 376.634L469.72 377.135L471.646 376.598ZM262.95 376.971L264.879 377.498L264.981 377.124L264.937 376.74L262.95 376.971ZM235.223 315.335L234.321 313.55L232.04 314.702L233.706 316.639L235.223 315.335ZM316.827 318.748L315.972 320.557L316.799 320.947L317.634 320.578L316.827 318.748ZM415.846 317.877L415.074 319.722L417.314 316.519L415.846 317.877ZM415.35 317.34L414.566 315.5L411.952 316.614L413.882 318.699L415.35 317.34ZM489.109 331.08C493.565 319.735 498.379 307.482 503.252 292.457L499.447 291.223C494.615 306.12 489.842 318.272 485.386 329.618L489.109 331.08ZM473.59 377.068C477.669 360.208 483.052 346.499 489.109 331.08L485.386 329.618C479.336 345.018 473.854 358.966 469.702 376.128L473.59 377.068ZM476.35 396.34C476.35 389.368 475.39 382.579 473.573 376.061L469.72 377.135C471.441 383.31 472.35 389.738 472.35 396.34H476.35ZM367.35 486.34C427.165 486.34 476.35 446.394 476.35 396.34H472.35C472.35 443.489 425.723 482.34 367.35 482.34V486.34ZM258.35 396.34C258.35 446.394 307.534 486.34 367.35 486.34V482.34C308.976 482.34 262.35 443.489 262.35 396.34H258.35ZM261.021 376.444C259.272 382.845 258.35 389.504 258.35 396.34H262.35C262.35 389.867 263.223 383.561 264.879 377.498L261.021 376.444ZM235.223 315.335C233.706 316.639 233.706 316.639 233.706 316.638C233.706 316.639 233.706 316.638 233.706 316.639C233.706 316.639 233.707 316.64 233.708 316.641C233.71 316.643 233.713 316.647 233.718 316.653C233.728 316.664 233.743 316.682 233.764 316.707C233.805 316.756 233.868 316.831 233.952 316.932C234.12 317.134 234.369 317.438 234.69 317.839C235.332 318.642 236.26 319.833 237.388 321.371C239.644 324.447 242.698 328.905 245.875 334.411C252.24 345.446 259.034 360.586 260.963 377.201L264.937 376.74C262.921 359.38 255.852 343.702 249.34 332.413C246.077 326.757 242.939 322.177 240.613 319.005C239.45 317.419 238.488 316.183 237.814 315.341C237.477 314.919 237.212 314.596 237.029 314.376C236.938 314.266 236.867 314.182 236.818 314.124C236.794 314.095 236.775 314.073 236.762 314.058C236.755 314.05 236.75 314.044 236.746 314.039C236.744 314.037 236.743 314.035 236.742 314.034C236.741 314.033 236.74 314.033 236.74 314.032C236.74 314.032 236.739 314.031 235.223 315.335ZM317.681 316.94C294.457 305.965 273.663 305.086 258.657 306.968C251.16 307.908 245.109 309.537 240.92 310.938C238.824 311.638 237.193 312.282 236.076 312.755C235.518 312.992 235.088 313.186 234.794 313.323C234.646 313.392 234.533 313.446 234.454 313.484C234.414 313.504 234.383 313.519 234.361 313.53C234.35 313.535 234.341 313.54 234.335 313.543C234.331 313.545 234.328 313.546 234.326 313.547C234.325 313.548 234.324 313.548 234.323 313.549C234.322 313.549 234.321 313.55 235.223 315.335C236.124 317.12 236.124 317.121 236.123 317.121C236.123 317.121 236.122 317.121 236.122 317.121C236.122 317.121 236.123 317.121 236.124 317.12C236.126 317.119 236.13 317.117 236.137 317.114C236.149 317.108 236.171 317.097 236.201 317.083C236.26 317.054 236.354 317.009 236.481 316.95C236.736 316.831 237.123 316.656 237.637 316.438C238.665 316.003 240.199 315.396 242.188 314.732C246.167 313.402 251.958 311.839 259.155 310.937C273.539 309.132 293.547 309.959 315.972 320.557L317.681 316.94ZM367.35 306.34C348.803 306.34 331.325 310.164 316.019 316.919L317.634 320.578C332.424 314.051 349.351 310.34 367.35 310.34V306.34ZM416.619 316.032C401.813 309.83 385.069 306.34 367.35 306.34V310.34C384.545 310.34 400.764 313.727 415.074 319.722L416.619 316.032ZM413.882 318.699L414.379 319.236L417.314 316.519L416.817 315.982L413.882 318.699ZM501.068 289.86C463.78 295.16 444.833 302.604 414.566 315.5L416.134 319.18C446.258 306.345 464.838 299.05 501.631 293.82L501.068 289.86Z" fill="white"/>
<path fill-rule="evenodd" clip-rule="evenodd" d="M461.288 234.127C460.509 242.583 455.504 252.139 444.526 261.459L444.535 261.47L444.363 261.5L451.357 300.928L452.342 300.753L445.462 261.975C456.378 252.615 461.481 242.93 462.284 234.219C463.095 225.424 459.513 217.691 453.239 212.397C440.801 201.902 417.897 201.032 397.561 219.955L397.55 219.94C397.131 220.254 396.728 220.577 396.339 220.91C388.33 214.037 378.114 210.692 368.283 210.786C359.527 210.87 351.048 213.681 344.687 219.181C343.685 220.048 342.737 220.98 341.848 221.979C341.113 221.302 340.391 220.636 339.693 219.977L339.551 220.127C323.781 207.708 305.903 211.735 296.166 222.501C291.117 228.085 288.249 235.489 289.015 243.344C289.774 251.124 294.091 259.283 303.256 266.51L297.354 310.774L298.345 310.906L304.345 265.906L304.057 265.868C294.939 258.74 290.743 250.757 290.011 243.247C289.275 235.703 292.025 228.571 296.908 223.172C306.668 212.38 324.92 208.546 340.671 222.358L340.722 222.301C340.879 222.446 341.037 222.591 341.195 222.737C336.856 227.953 334.106 234.85 333.856 243.374L333.851 243.375L333.855 243.432C333.853 243.495 333.851 243.558 333.85 243.621L333.869 243.621C334.411 250.825 336.807 255.768 340.279 258.662C343.537 261.376 347.674 262.231 351.938 261.526L351.998 261.701C352.326 261.59 352.641 261.466 352.944 261.332L352.958 261.328L352.957 261.326C356.06 259.942 357.873 257.371 358.586 254.121C359.364 250.577 358.84 246.229 357.324 241.682C355.793 237.089 352.968 233.164 349.745 229.643C347.471 227.159 344.976 224.854 342.585 222.655C343.447 221.685 344.369 220.779 345.341 219.937C351.496 214.614 359.736 211.868 368.292 211.786C377.858 211.694 387.785 214.931 395.587 221.583C387.946 228.718 386.724 239.569 389.946 248.98C391.706 254.123 395.151 257.457 398.139 259.5C399.633 260.522 401.018 261.225 402.032 261.672C402.538 261.896 402.953 262.057 403.243 262.162C403.26 262.168 403.277 262.174 403.293 262.18L403.267 262.334C406.359 262.849 408.544 262.286 409.971 260.902C411.379 259.538 411.941 257.477 412.037 255.237C412.221 250.947 410.71 245.649 409.482 242.131C407.136 233.47 402.697 226.629 397.098 221.577C397.273 221.429 397.452 221.283 397.633 221.139L397.694 221.203C417.88 202.014 440.514 202.968 452.594 213.162C458.636 218.259 462.067 225.679 461.288 234.127ZM408.964 243.725C410.071 247.125 411.193 251.573 411.038 255.194C410.946 257.329 410.414 259.08 409.275 260.184C408.227 261.201 406.568 261.758 403.974 261.427C403.993 261.361 403.994 261.361 403.994 261.362L403.993 261.361L403.989 261.36L403.971 261.354C403.961 261.351 403.948 261.347 403.931 261.342C403.92 261.338 403.907 261.334 403.893 261.329C403.823 261.306 403.719 261.271 403.584 261.222C403.313 261.124 402.92 260.972 402.436 260.758C401.467 260.33 400.137 259.656 398.703 258.675C395.833 256.712 392.562 253.536 390.892 248.656C387.751 239.484 388.993 229.052 396.344 222.245C401.763 227.108 406.078 233.682 408.408 241.998L408.379 242.008C408.427 242.145 408.477 242.284 408.526 242.426C408.644 242.862 408.757 243.303 408.863 243.749L408.964 243.725ZM341.933 223.415C337.757 228.452 335.097 235.121 334.856 243.411C335.365 250.514 337.697 255.208 340.92 257.894C344.125 260.565 348.289 261.313 352.628 260.377C355.362 259.128 356.962 256.854 357.609 253.907C358.335 250.604 357.859 246.451 356.375 241.998C354.906 237.592 352.183 233.787 349.008 230.319C346.762 227.866 344.313 225.603 341.933 223.415Z" fill="white"/>
<path d="M444.526 261.459L443.555 260.316L442.412 261.286L443.382 262.43L444.526 261.459ZM461.288 234.127L459.795 233.99V233.99L461.288 234.127ZM444.535 261.47L444.797 262.946L447.369 262.49L445.678 260.499L444.535 261.47ZM444.363 261.5L444.101 260.023L442.624 260.285L442.886 261.762L444.363 261.5ZM451.357 300.928L449.88 301.19L450.142 302.667L451.619 302.405L451.357 300.928ZM452.342 300.753L452.604 302.23L454.081 301.968L453.819 300.491L452.342 300.753ZM445.462 261.975L444.486 260.836L443.836 261.394L443.985 262.237L445.462 261.975ZM462.284 234.219L463.778 234.357V234.357L462.284 234.219ZM453.239 212.397L452.271 213.544V213.544L453.239 212.397ZM397.561 219.955L396.36 220.855L397.361 222.19L398.583 221.053L397.561 219.955ZM397.55 219.94L398.75 219.041L397.851 217.84L396.65 218.74L397.55 219.94ZM396.339 220.91L395.362 222.048L396.338 222.885L397.315 222.049L396.339 220.91ZM368.283 210.786L368.268 209.286L368.283 210.786ZM344.687 219.181L345.668 220.316L344.687 219.181ZM341.848 221.979L340.833 223.082L341.955 224.115L342.969 222.976L341.848 221.979ZM339.693 219.977L340.722 218.885L339.631 217.856L338.601 218.947L339.693 219.977ZM339.551 220.127L338.623 221.305L339.701 222.154L340.642 221.156L339.551 220.127ZM296.166 222.501L297.279 223.507L296.166 222.501ZM289.015 243.344L290.508 243.198L289.015 243.344ZM303.256 266.51L304.743 266.709L304.856 265.862L304.185 265.333L303.256 266.51ZM297.354 310.774L295.867 310.576L295.669 312.063L297.156 312.261L297.354 310.774ZM298.345 310.906L298.147 312.393L299.634 312.592L299.832 311.105L298.345 310.906ZM304.345 265.906L305.832 266.105L306.03 264.618L304.543 264.42L304.345 265.906ZM304.057 265.868L303.133 267.05L303.454 267.301L303.859 267.355L304.057 265.868ZM290.011 243.247L291.504 243.101L290.011 243.247ZM296.908 223.172L295.796 222.166V222.166L296.908 223.172ZM340.671 222.358L339.682 223.486L340.81 224.475L341.799 223.347L340.671 222.358ZM340.721 222.301L341.738 221.198L340.608 220.155L339.594 221.312L340.721 222.301ZM341.195 222.737L342.349 223.696L343.261 222.599L342.211 221.633L341.195 222.737ZM333.856 243.374L333.96 244.871L335.316 244.777L335.356 243.418L333.856 243.374ZM333.851 243.375L333.748 241.878L332.25 241.982L332.354 243.479L333.851 243.375ZM333.855 243.432L335.354 243.474L335.356 243.401L335.351 243.328L333.855 243.432ZM333.85 243.621L332.35 243.585L332.315 245.085L333.815 245.12L333.85 243.621ZM333.869 243.621L335.364 243.508L335.262 242.153L333.904 242.121L333.869 243.621ZM340.279 258.662L341.24 257.51L340.279 258.662ZM351.938 261.526L353.358 261.043L352.948 259.839L351.694 260.046L351.938 261.526ZM351.998 261.701L350.578 262.185L351.061 263.605L352.481 263.121L351.998 261.701ZM352.944 261.332L352.619 259.867L352.472 259.9L352.335 259.961L352.944 261.332ZM352.958 261.328L353.283 262.793L354.746 262.468L354.423 261.005L352.958 261.328ZM352.957 261.326L352.346 259.956L351.229 260.454L351.493 261.649L352.957 261.326ZM358.586 254.121L360.051 254.443L360.051 254.443L358.586 254.121ZM357.324 241.682L355.901 242.157V242.157L357.324 241.682ZM349.745 229.643L348.639 230.656L349.745 229.643ZM342.585 222.655L341.463 221.659L340.484 222.761L341.569 223.76L342.585 222.655ZM345.341 219.937L344.36 218.803L344.36 218.803L345.341 219.937ZM368.292 211.786L368.278 210.286L368.292 211.786ZM395.587 221.583L396.61 222.679L397.839 221.532L396.56 220.441L395.587 221.583ZM389.945 248.98L388.526 249.466L389.945 248.98ZM398.139 259.5L397.292 260.739L398.139 259.5ZM402.031 261.672L402.638 260.3L402.031 261.672ZM403.243 262.162L403.754 260.752L403.754 260.752L403.243 262.162ZM403.293 262.18L404.773 262.427L404.979 261.191L403.799 260.768L403.293 262.18ZM403.267 262.334L401.788 262.087L401.541 263.567L403.021 263.813L403.267 262.334ZM409.971 260.902L408.927 259.825L409.971 260.902ZM412.037 255.237L410.538 255.173V255.173L412.037 255.237ZM409.482 242.131L408.035 242.523L408.048 242.574L408.066 242.625L409.482 242.131ZM397.098 221.577L396.129 220.432L394.818 221.541L396.093 222.691L397.098 221.577ZM397.633 221.139L398.72 220.105L397.775 219.11L396.7 219.964L397.633 221.139ZM397.694 221.203L396.607 222.236L397.64 223.323L398.728 222.29L397.694 221.203ZM452.594 213.162L453.561 212.015L452.594 213.162ZM411.038 255.194L412.536 255.258V255.258L411.038 255.194ZM408.964 243.725L410.391 243.261L409.962 241.943L408.615 242.266L408.964 243.725ZM409.275 260.184L408.231 259.107L408.231 259.107L409.275 260.184ZM403.974 261.427L402.537 260.995L402.027 262.691L403.784 262.915L403.974 261.427ZM403.994 261.362L403.564 262.799L404.441 259.93L403.994 261.362ZM403.993 261.361L403.554 262.796L403.564 262.799L403.993 261.361ZM403.989 261.36L403.543 262.792L403.551 262.795L403.989 261.36ZM403.971 261.354L403.521 262.785L403.525 262.787L403.971 261.354ZM403.931 261.342L403.47 262.769L403.47 262.769L403.931 261.342ZM403.893 261.329L404.363 259.905L404.363 259.905L403.893 261.329ZM403.584 261.222L403.072 262.632L403.072 262.632L403.584 261.222ZM402.436 260.758L403.042 259.386L403.042 259.386L402.436 260.758ZM398.703 258.675L399.55 257.437L398.703 258.675ZM390.892 248.656L392.311 248.17L390.892 248.656ZM396.344 222.245L397.345 221.129L396.328 220.215L395.324 221.144L396.344 222.245ZM408.408 241.998L408.913 243.41L410.23 242.94L409.853 241.593L408.408 241.998ZM408.379 242.008L407.874 240.596L406.462 241.1L406.966 242.513L408.379 242.008ZM408.526 242.426L409.974 242.035L409.96 241.983L409.942 241.931L408.526 242.426ZM408.863 243.749L407.405 244.099L407.754 245.557L409.213 245.208L408.863 243.749ZM334.856 243.411L333.356 243.367L333.354 243.443L333.36 243.518L334.856 243.411ZM341.933 223.415L342.948 222.311L341.785 221.242L340.778 222.458L341.933 223.415ZM340.92 257.894L341.88 256.741L340.92 257.894ZM352.628 260.377L352.944 261.843L353.103 261.809L353.251 261.741L352.628 260.377ZM357.609 253.907L356.144 253.585L357.609 253.907ZM356.375 241.998L357.798 241.524L357.798 241.524L356.375 241.998ZM349.008 230.319L350.114 229.306L349.008 230.319ZM445.497 262.603C456.68 253.108 461.957 243.219 462.782 234.265L459.795 233.99C459.061 241.946 454.328 251.169 443.555 260.316L445.497 262.603ZM445.678 260.499L445.67 260.488L443.382 262.43L443.391 262.44L445.678 260.499ZM444.625 262.977L444.797 262.946L444.273 259.993L444.101 260.023L444.625 262.977ZM452.834 300.666L445.839 261.238L442.886 261.762L449.88 301.19L452.834 300.666ZM452.08 299.276L451.095 299.451L451.619 302.405L452.604 302.23L452.08 299.276ZM443.985 262.237L450.865 301.015L453.819 300.491L446.939 261.713L443.985 262.237ZM460.79 234.081C460.033 242.298 455.198 251.651 444.486 260.836L446.439 263.113C457.558 253.579 462.929 243.562 463.778 234.357L460.79 234.081ZM452.271 213.544C458.197 218.543 461.553 225.807 460.79 234.081L463.778 234.357C464.636 225.04 460.829 216.839 454.206 211.251L452.271 213.544ZM398.583 221.053C418.486 202.533 440.533 203.639 452.271 213.544L454.206 211.251C441.069 200.166 417.308 199.531 396.539 218.857L398.583 221.053ZM396.349 220.84L396.36 220.855L398.761 219.056L398.75 219.041L396.349 220.84ZM397.315 222.049C397.678 221.738 398.056 221.435 398.449 221.141L396.65 218.74C396.206 219.073 395.777 219.417 395.364 219.77L397.315 222.049ZM368.297 212.286C377.79 212.195 387.647 215.428 395.362 222.048L397.316 219.771C389.013 212.647 378.439 209.189 368.268 209.286L368.297 212.286ZM345.668 220.316C351.721 215.081 359.841 212.367 368.297 212.286L368.268 209.286C359.212 209.373 350.374 212.28 343.706 218.047L345.668 220.316ZM342.969 222.976C343.813 222.027 344.715 221.14 345.668 220.316L343.706 218.047C342.655 218.955 341.66 219.933 340.728 220.981L342.969 222.976ZM338.663 221.068C339.369 221.734 340.097 222.406 340.833 223.082L342.864 220.875C342.13 220.199 341.414 219.538 340.722 218.885L338.663 221.068ZM340.642 221.156L340.784 221.006L338.601 218.947L338.46 219.097L340.642 221.156ZM297.279 223.507C306.524 213.286 323.515 209.408 338.623 221.305L340.479 218.948C324.047 206.009 305.283 210.185 295.054 221.495L297.279 223.507ZM290.508 243.198C289.787 235.81 292.48 228.814 297.279 223.507L295.054 221.495C289.754 227.355 286.711 235.168 287.522 243.49L290.508 243.198ZM304.185 265.333C295.279 258.309 291.221 250.5 290.508 243.198L287.522 243.49C288.328 251.748 292.903 260.256 302.327 267.688L304.185 265.333ZM298.841 310.972L304.743 266.709L301.769 266.312L295.867 310.576L298.841 310.972ZM298.543 309.42L297.552 309.287L297.156 312.261L298.147 312.393L298.543 309.42ZM302.858 265.708L296.858 310.708L299.832 311.105L305.832 266.105L302.858 265.708ZM303.859 267.355L304.147 267.393L304.543 264.42L304.255 264.381L303.859 267.355ZM288.518 243.392C289.297 251.385 293.754 259.718 303.133 267.05L304.981 264.686C296.123 257.762 292.189 250.13 291.504 243.101L288.518 243.392ZM295.796 222.166C290.662 227.842 287.736 235.382 288.518 243.392L291.504 243.101C290.813 236.024 293.388 229.3 298.021 224.178L295.796 222.166ZM341.66 221.23C325.257 206.847 306.073 210.802 295.796 222.166L298.021 224.178C307.263 213.958 324.582 210.246 339.682 223.486L341.66 221.23ZM339.594 221.312L339.543 221.369L341.799 223.347L341.849 223.29L339.594 221.312ZM342.211 221.633C342.053 221.488 341.895 221.343 341.738 221.198L339.705 223.403C339.863 223.549 340.021 223.695 340.18 223.841L342.211 221.633ZM335.356 243.418C335.596 235.206 338.238 228.638 342.349 223.696L340.042 221.778C335.475 227.269 332.616 234.493 332.357 243.33L335.356 243.418ZM333.954 244.871L333.96 244.871L333.753 241.878L333.748 241.878L333.954 244.871ZM335.351 243.328L335.347 243.27L332.354 243.479L332.358 243.536L335.351 243.328ZM335.349 243.656C335.351 243.595 335.352 243.535 335.354 243.474L332.355 243.39C332.354 243.455 332.352 243.52 332.35 243.585L335.349 243.656ZM333.904 242.121L333.885 242.121L333.815 245.12L333.833 245.121L333.904 242.121ZM341.24 257.51C338.173 254.954 335.887 250.448 335.364 243.508L332.373 243.734C332.935 251.202 335.441 256.583 339.319 259.814L341.24 257.51ZM351.694 260.046C347.783 260.693 344.107 259.899 341.24 257.51L339.319 259.814C342.967 262.854 347.566 263.769 352.183 263.006L351.694 260.046ZM353.418 261.218L353.358 261.043L350.518 262.01L350.578 262.185L353.418 261.218ZM352.335 259.961C352.074 260.077 351.801 260.184 351.514 260.281L352.481 263.121C352.85 262.995 353.208 262.856 353.553 262.702L352.335 259.961ZM352.633 259.864L352.619 259.867L353.268 262.796L353.283 262.793L352.633 259.864ZM351.493 261.649L351.493 261.652L354.423 261.005L354.422 261.002L351.493 261.649ZM357.121 253.799C356.493 256.659 354.949 258.795 352.346 259.956L353.568 262.695C357.171 261.088 359.252 258.083 360.051 254.443L357.121 253.799ZM355.901 242.157C357.369 246.562 357.82 250.617 357.121 253.799L360.051 254.443C360.909 250.537 360.31 245.897 358.747 241.208L355.901 242.157ZM348.639 230.656C351.79 234.099 354.463 237.843 355.901 242.157L358.747 241.208C357.123 236.335 354.147 232.23 350.852 228.631L348.639 230.656ZM341.569 223.76C343.965 225.962 346.414 228.226 348.639 230.656L350.852 228.631C348.527 226.091 345.986 223.745 343.6 221.551L341.569 223.76ZM344.36 218.803C343.339 219.686 342.371 220.638 341.463 221.659L343.706 223.652C344.524 222.731 345.399 221.871 346.322 221.072L344.36 218.803ZM368.278 210.286C359.422 210.371 350.823 213.214 344.36 218.803L346.322 221.072C352.17 216.015 360.05 213.365 368.307 213.286L368.278 210.286ZM396.56 220.441C388.464 213.539 378.18 210.191 368.278 210.286L368.307 213.286C377.535 213.198 387.105 216.323 394.613 222.724L396.56 220.441ZM391.365 248.494C388.28 239.483 389.512 229.308 396.61 222.679L394.563 220.486C386.379 228.129 385.168 239.655 388.526 249.466L391.365 248.494ZM398.985 258.262C396.174 256.34 392.99 253.242 391.365 248.494L388.526 249.466C390.422 255.004 394.127 258.574 397.292 260.739L398.985 258.262ZM402.638 260.3C401.691 259.882 400.389 259.222 398.985 258.262L397.292 260.739C398.877 261.822 400.346 262.567 401.425 263.044L402.638 260.3ZM403.754 260.752C403.493 260.657 403.111 260.509 402.638 260.3L401.425 263.044C401.966 263.283 402.413 263.456 402.731 263.572L403.754 260.752ZM403.799 260.768C403.785 260.763 403.77 260.757 403.754 260.752L402.731 263.572C402.75 263.579 402.769 263.586 402.787 263.592L403.799 260.768ZM404.747 262.58L404.773 262.427L401.813 261.933L401.788 262.087L404.747 262.58ZM408.927 259.825C407.962 260.761 406.331 261.323 403.514 260.854L403.021 263.813C406.388 264.374 409.125 263.812 411.015 261.98L408.927 259.825ZM410.538 255.173C410.449 257.255 409.931 258.852 408.927 259.825L411.015 261.98C412.827 260.224 413.433 257.698 413.535 255.301L410.538 255.173ZM408.066 242.625C409.287 246.126 410.709 251.19 410.538 255.173L413.535 255.301C413.732 250.704 412.132 245.173 410.899 241.637L408.066 242.625ZM396.093 222.691C401.478 227.55 405.764 234.14 408.035 242.523L410.93 241.738C408.509 232.799 403.915 225.709 398.103 220.464L396.093 222.691ZM396.7 219.964C396.507 220.118 396.316 220.274 396.129 220.432L398.066 222.723C398.23 222.585 398.397 222.448 398.566 222.313L396.7 219.964ZM398.781 220.169L398.72 220.105L396.546 222.172L396.607 222.236L398.781 220.169ZM453.561 212.015C440.775 201.226 417.277 200.518 396.661 220.116L398.728 222.29C418.483 203.511 440.253 204.711 451.627 214.308L453.561 212.015ZM462.782 234.265C463.609 225.296 459.952 217.407 453.561 212.015L451.627 214.308C457.319 219.111 460.525 226.062 459.795 233.99L462.782 234.265ZM412.536 255.258C412.704 251.354 411.507 246.69 410.391 243.261L407.538 244.189C408.635 247.56 409.682 251.792 409.539 255.13L412.536 255.258ZM410.319 261.261C411.861 259.767 412.438 257.551 412.536 255.258L409.539 255.13C409.454 257.107 408.967 258.394 408.231 259.107L410.319 261.261ZM403.784 262.915C406.67 263.283 408.842 262.693 410.319 261.261L408.231 259.107C407.611 259.708 406.467 260.233 404.164 259.939L403.784 262.915ZM404.441 259.93C404.441 259.93 404.438 259.929 404.435 259.928C404.432 259.927 404.423 259.924 404.417 259.922C404.402 259.918 404.377 259.911 404.345 259.903C404.283 259.888 404.185 259.869 404.063 259.863C403.786 259.85 403.51 259.915 403.266 260.05C402.888 260.259 402.717 260.574 402.701 260.6C402.652 260.684 402.622 260.755 402.613 260.776C402.6 260.806 402.591 260.83 402.587 260.842C402.578 260.866 402.571 260.885 402.569 260.891C402.567 260.899 402.565 260.905 402.564 260.908C402.56 260.919 402.557 260.93 402.556 260.933C402.553 260.944 402.547 260.962 402.537 260.995L405.41 261.859C405.42 261.826 405.424 261.812 405.426 261.806C405.428 261.801 405.426 261.808 405.423 261.817C405.422 261.819 405.42 261.826 405.417 261.833C405.416 261.839 405.409 261.858 405.401 261.882C405.396 261.893 405.387 261.917 405.374 261.947C405.366 261.968 405.336 262.039 405.286 262.123C405.27 262.149 405.1 262.464 404.721 262.673C404.477 262.808 404.201 262.873 403.924 262.86C403.803 262.854 403.704 262.835 403.642 262.82C403.611 262.812 403.586 262.805 403.57 262.801C403.564 262.799 403.555 262.796 403.552 262.795C403.549 262.794 403.546 262.793 403.546 262.793L404.441 259.93ZM403.564 262.799L403.564 262.799L404.423 259.924L404.422 259.924L403.564 262.799ZM403.551 262.795L403.554 262.796L404.432 259.927L404.428 259.926L403.551 262.795ZM403.525 262.787L403.543 262.792L404.435 259.928L404.417 259.922L403.525 262.787ZM403.47 262.769C403.49 262.776 403.507 262.781 403.521 262.785L404.421 259.924C404.415 259.922 404.405 259.919 404.392 259.914L403.47 262.769ZM403.423 262.754C403.44 262.76 403.456 262.765 403.47 262.769L404.393 259.915C404.384 259.912 404.374 259.909 404.363 259.905L403.423 262.754ZM403.072 262.632C403.222 262.686 403.34 262.727 403.423 262.754L404.363 259.905C404.306 259.886 404.216 259.855 404.095 259.812L403.072 262.632ZM401.829 262.13C402.348 262.359 402.773 262.523 403.072 262.632L404.095 259.812C403.854 259.724 403.492 259.584 403.042 259.386L401.829 262.13ZM397.856 259.913C399.381 260.956 400.794 261.672 401.829 262.13L403.042 259.386C402.139 258.987 400.894 258.356 399.55 257.437L397.856 259.913ZM389.472 249.142C391.278 254.416 394.809 257.83 397.856 259.913L399.55 257.437C396.857 255.595 393.846 252.655 392.311 248.17L389.472 249.142ZM395.324 221.144C387.427 228.458 386.195 239.568 389.472 249.142L392.311 248.17C389.308 239.4 390.559 229.646 397.363 223.346L395.324 221.144ZM409.853 241.593C407.445 233.003 402.976 226.182 397.345 221.129L395.342 223.361C400.549 228.035 404.711 234.362 406.964 242.403L409.853 241.593ZM408.883 243.421L408.913 243.41L407.904 240.585L407.874 240.596L408.883 243.421ZM409.942 241.931C409.892 241.786 409.841 241.644 409.791 241.504L406.966 242.513C407.014 242.646 407.062 242.782 407.11 242.921L409.942 241.931ZM410.322 243.399C410.212 242.94 410.096 242.485 409.974 242.035L407.078 242.817C407.192 243.24 407.301 243.667 407.405 244.099L410.322 243.399ZM408.615 242.266L408.514 242.29L409.213 245.208L409.314 245.183L408.615 242.266ZM336.355 243.454C336.588 235.477 339.139 229.135 343.087 224.372L340.778 222.458C336.374 227.769 333.607 234.766 333.356 243.367L336.355 243.454ZM341.88 256.741C339.065 254.396 336.842 250.142 336.352 243.303L333.36 243.518C333.888 250.886 336.329 256.021 339.959 259.046L341.88 256.741ZM352.312 258.911C348.332 259.769 344.665 259.062 341.88 256.741L339.959 259.046C343.586 262.068 348.245 262.857 352.944 261.843L352.312 258.911ZM356.144 253.585C355.581 256.149 354.243 257.99 352.005 259.013L353.251 261.741C356.481 260.266 358.343 257.56 359.075 254.228L356.144 253.585ZM354.952 242.473C356.389 246.784 356.79 250.644 356.144 253.585L359.075 254.228C359.879 250.564 359.33 246.119 357.798 241.524L354.952 242.473ZM347.901 231.332C351.005 234.722 353.576 238.345 354.952 242.473L357.798 241.524C356.236 236.838 353.361 232.853 350.114 229.306L347.901 231.332ZM340.917 224.519C343.303 226.712 345.706 228.934 347.901 231.332L350.114 229.306C347.819 226.799 345.323 224.494 342.948 222.311L340.917 224.519Z" fill="white"/>
<path fill-rule="evenodd" clip-rule="evenodd" d="M481.92 534.557C483.231 521.3 478.07 507.655 463.316 496.199L463.929 495.409C478.927 507.054 484.263 521.022 482.915 534.656C481.569 548.259 473.576 561.452 462.069 571.619C439.274 591.757 402.419 600.219 375.47 576.241L375.444 576.276C374.87 575.847 374.319 575.403 373.79 574.947C363.448 583.865 350.232 588.206 337.513 588.084C326.22 587.976 315.291 584.351 307.096 577.264C305.768 576.116 304.513 574.877 303.34 573.549C302.352 574.458 301.381 575.354 300.442 576.24L299.764 575.522C287.387 581.189 275.597 581 265.667 577.048C255.028 572.813 246.555 564.273 241.781 554.06C237.005 543.846 235.917 531.933 240.089 520.95C244.264 509.959 253.685 499.958 269.815 493.535L270.185 494.465C254.273 500.801 245.084 510.616 241.024 521.305C236.96 532.003 238.01 543.634 242.686 553.636C247.363 563.64 255.656 571.987 266.037 576.118C276.406 580.245 288.891 580.18 302.001 573.31L302.041 573.386C302.256 573.188 302.471 572.989 302.687 572.79C297.049 566.061 293.469 557.145 293.142 546.102L293.134 546.101L293.14 546.02C293.139 545.979 293.138 545.938 293.137 545.897C293.135 545.854 293.134 545.812 293.133 545.77L293.158 545.769C293.86 536.487 296.947 530.143 301.395 526.436C305.562 522.963 310.858 521.862 316.329 522.76L316.406 522.532C316.831 522.677 317.239 522.837 317.631 523.011L317.663 523.019L317.662 523.025C321.61 524.797 323.918 528.074 324.83 532.227C325.828 536.774 325.157 542.367 323.201 548.233C321.231 554.145 317.594 559.203 313.433 563.748C310.461 566.994 307.2 570.001 304.076 572.872C305.224 574.173 306.452 575.385 307.75 576.508C315.739 583.417 326.429 586.978 337.522 587.084C349.975 587.204 362.902 582.972 373.038 574.274C363.102 565.097 361.492 551.069 365.662 538.89C367.925 532.279 372.354 527.99 376.2 525.36C378.124 524.045 379.907 523.141 381.21 522.565C381.862 522.277 382.395 522.07 382.767 521.936C382.781 521.931 382.794 521.926 382.807 521.921L382.773 521.72C386.745 521.059 389.515 521.786 391.316 523.532C393.097 525.258 393.819 527.878 393.942 530.759C394.179 536.278 392.232 543.109 390.646 547.656C387.603 558.892 381.829 567.753 374.549 574.28C374.813 574.505 375.082 574.728 375.357 574.946L375.435 574.861C401.932 599.162 438.64 590.983 461.407 570.869C472.78 560.821 480.605 547.844 481.92 534.557ZM389.69 547.361C389.843 546.794 389.989 546.221 390.128 545.641L390.259 545.673C391.69 541.271 393.145 535.505 392.943 530.802C392.824 528.026 392.132 525.715 390.62 524.25C389.219 522.892 387.017 522.168 383.62 522.606C383.646 522.692 383.646 522.692 383.646 522.692L383.645 522.693L383.64 522.694L383.615 522.702C383.592 522.709 383.558 522.72 383.512 522.735C383.421 522.765 383.285 522.812 383.108 522.876C382.756 523.003 382.244 523.201 381.614 523.48C380.355 524.036 378.628 524.912 376.764 526.186C373.036 528.735 368.781 532.866 366.608 539.214C362.52 551.155 364.15 564.764 373.795 573.612C380.866 567.299 386.499 558.749 389.535 547.921L389.497 547.907C389.56 547.729 389.625 547.547 389.69 547.361ZM302.035 527.204C297.827 530.711 294.8 536.826 294.141 546.041C294.455 556.86 297.945 565.558 303.424 572.113C306.538 569.251 309.753 566.286 312.695 563.073C316.808 558.58 320.344 553.643 322.253 547.917C324.177 542.145 324.798 536.747 323.853 532.441C323.006 528.584 320.906 525.601 317.315 523.966C311.663 522.743 306.225 523.713 302.035 527.204Z" fill="white"/>
<path d="M463.316 496.199L462.396 497.384L461.211 496.464L462.131 495.279L463.316 496.199ZM481.92 534.557L483.412 534.705V534.705L481.92 534.557ZM463.929 495.409L462.745 494.489L463.665 493.305L464.849 494.224L463.929 495.409ZM482.915 534.656L481.422 534.508L482.915 534.656ZM462.069 571.619L461.076 570.495L462.069 571.619ZM375.47 576.241L374.27 575.341L375.249 574.036L376.468 575.12L375.47 576.241ZM375.444 576.276L376.644 577.176L375.745 578.376L374.544 577.477L375.444 576.276ZM373.79 574.947L372.811 573.811L373.791 572.966L374.771 573.811L373.79 574.947ZM337.513 588.084L337.527 586.584L337.513 588.084ZM307.096 577.264L308.077 576.13V576.13L307.096 577.264ZM303.34 573.549L302.325 572.445L303.451 571.409L304.464 572.556L303.34 573.549ZM300.441 576.24L301.471 577.331L300.38 578.36L299.35 577.269L300.441 576.24ZM299.764 575.522L299.14 574.158L300.117 573.71L300.855 574.493L299.764 575.522ZM265.667 577.048L265.112 578.441L265.667 577.048ZM241.781 554.06L240.422 554.695H240.422L241.781 554.06ZM240.089 520.95L241.491 521.483L240.089 520.95ZM269.815 493.535L269.26 492.142L270.653 491.587L271.208 492.981L269.815 493.535ZM270.185 494.465L271.578 493.91L272.133 495.303L270.74 495.858L270.185 494.465ZM241.024 521.305L242.426 521.838H242.426L241.024 521.305ZM242.686 553.636L241.328 554.272L242.686 553.636ZM266.037 576.118L266.592 574.725L266.037 576.118ZM302.001 573.31L301.305 571.982L302.634 571.285L303.33 572.614L302.001 573.31ZM302.041 573.386L303.057 574.488L301.62 575.814L300.712 574.082L302.041 573.386ZM302.687 572.79L303.837 571.827L304.757 572.925L303.703 573.894L302.687 572.79ZM293.142 546.102L293.245 544.605L294.601 544.698L294.642 546.057L293.142 546.102ZM293.134 546.101L293.031 547.598L291.533 547.495L291.638 545.997L293.134 546.101ZM293.14 546.02L294.639 545.978L294.641 546.051L294.636 546.124L293.14 546.02ZM293.137 545.897L291.637 545.936V545.936L293.137 545.897ZM293.133 545.77L291.634 545.805L291.599 544.305L293.098 544.27L293.133 545.77ZM293.158 545.769L294.654 545.882L294.552 547.237L293.194 547.269L293.158 545.769ZM301.395 526.436L300.434 525.284L301.395 526.436ZM316.329 522.76L317.749 523.244L317.339 524.447L316.085 524.241L316.329 522.76ZM316.406 522.532L314.986 522.049L315.47 520.629L316.89 521.112L316.406 522.532ZM317.631 523.011L317.306 524.476L317.158 524.443L317.02 524.381L317.631 523.011ZM317.663 523.019L317.988 521.554L319.454 521.879L319.128 523.345L317.663 523.019ZM317.662 523.025L317.048 524.394L315.932 523.893L316.198 522.699L317.662 523.025ZM324.83 532.227L323.365 532.548L324.83 532.227ZM323.201 548.233L324.624 548.708L323.201 548.233ZM313.433 563.748L314.539 564.761L313.433 563.748ZM304.076 572.872L302.951 573.864L301.979 572.762L303.061 571.768L304.076 572.872ZM307.75 576.508L308.731 575.374V575.374L307.75 576.508ZM337.522 587.084L337.508 588.584L337.522 587.084ZM373.038 574.274L374.055 573.172L375.293 574.316L374.014 575.413L373.038 574.274ZM365.662 538.89L367.081 539.376L367.081 539.376L365.662 538.89ZM376.2 525.36L375.353 524.122L376.2 525.36ZM381.21 522.565L381.816 523.937V523.937L381.21 522.565ZM382.767 521.936L382.256 520.525L382.256 520.525L382.767 521.936ZM382.807 521.921L384.286 521.675L384.492 522.909L383.315 523.333L382.807 521.921ZM382.773 521.72L381.294 521.967L381.047 520.487L382.527 520.241L382.773 521.72ZM391.316 523.532L392.36 522.454V522.454L391.316 523.532ZM393.942 530.759L395.441 530.695V530.695L393.942 530.759ZM390.646 547.656L389.198 547.264L389.212 547.213L389.229 547.162L390.646 547.656ZM374.549 574.28L373.574 575.42L372.272 574.306L373.548 573.163L374.549 574.28ZM375.357 574.946L376.463 575.96L375.518 576.991L374.423 576.12L375.357 574.946ZM375.435 574.861L374.33 573.847L375.343 572.742L376.449 573.756L375.435 574.861ZM461.407 570.869L462.4 571.994L461.407 570.869ZM390.128 545.641L388.669 545.292L389.019 543.833L390.478 544.183L390.128 545.641ZM389.689 547.361L391.138 547.752L391.123 547.804L391.106 547.856L389.689 547.361ZM390.259 545.673L391.685 546.136L391.257 547.454L389.909 547.131L390.259 545.673ZM392.943 530.802L394.442 530.737V530.737L392.943 530.802ZM390.62 524.25L389.576 525.327L390.62 524.25ZM383.62 522.606L382.183 523.037L381.674 521.344L383.428 521.118L383.62 522.606ZM383.645 522.693L383.206 521.258L383.214 521.256L383.645 522.693ZM383.639 522.694L383.194 521.262L383.201 521.26L383.639 522.694ZM383.615 522.702L383.165 521.271L383.169 521.27L383.615 522.702ZM383.108 522.876L383.62 524.286L383.62 524.286L383.108 522.876ZM381.614 523.48L382.221 524.852L382.221 524.852L381.614 523.48ZM376.764 526.186L377.611 527.424V527.424L376.764 526.186ZM366.608 539.214L368.027 539.7V539.7L366.608 539.214ZM373.795 573.612L374.794 574.731L373.781 575.635L372.781 574.717L373.795 573.612ZM389.535 547.921L390.04 546.508L391.357 546.979L390.98 548.326L389.535 547.921ZM389.497 547.907L388.992 549.32L387.579 548.815L388.084 547.403L389.497 547.907ZM294.141 546.041L292.642 546.084L292.639 546.009L292.645 545.934L294.141 546.041ZM302.035 527.204L301.075 526.052L302.035 527.204ZM303.424 572.113L304.439 573.217L303.282 574.281L302.274 573.075L303.424 572.113ZM312.695 563.073L313.801 564.085V564.085L312.695 563.073ZM322.253 547.917L320.83 547.443V547.443L322.253 547.917ZM323.853 532.441L325.318 532.119L323.853 532.441ZM317.315 523.966L317.632 522.5L317.79 522.534L317.936 522.601L317.315 523.966ZM464.236 495.014C479.355 506.754 484.779 520.884 483.412 534.705L480.427 534.41C481.683 521.715 476.784 508.556 462.396 497.384L464.236 495.014ZM465.114 496.329L464.501 497.119L462.131 495.279L462.745 494.489L465.114 496.329ZM481.422 534.508C482.715 521.438 477.641 507.955 463.01 496.594L464.849 494.224C480.212 506.153 485.812 520.606 484.407 534.803L481.422 534.508ZM461.076 570.495C472.383 560.505 480.123 547.637 481.422 534.508L484.407 534.803C483.015 548.882 474.769 562.4 463.062 572.743L461.076 570.495ZM376.468 575.12C402.648 598.415 438.622 590.332 461.076 570.495L463.062 572.743C439.926 593.183 402.19 602.023 374.473 577.361L376.468 575.12ZM374.243 575.377L374.27 575.341L376.671 577.14L376.644 577.176L374.243 575.377ZM374.771 573.811C375.273 574.245 375.797 574.667 376.343 575.076L374.544 577.477C373.943 577.027 373.366 576.561 372.81 576.082L374.771 573.811ZM337.527 586.584C349.907 586.703 362.763 582.475 372.811 573.811L374.77 576.083C364.133 585.255 350.557 589.709 337.498 589.584L337.527 586.584ZM308.077 576.13C315.964 582.95 326.534 586.479 337.527 586.584L337.498 589.584C325.905 589.473 314.617 585.752 306.115 578.399L308.077 576.13ZM304.464 572.556C305.592 573.833 306.799 575.025 308.077 576.13L306.115 578.399C304.737 577.207 303.434 575.922 302.216 574.542L304.464 572.556ZM299.412 575.149C300.359 574.256 301.336 573.354 302.325 572.445L304.355 574.653C303.368 575.561 302.403 576.452 301.471 577.331L299.412 575.149ZM300.855 574.493L301.533 575.211L299.35 577.269L298.673 576.551L300.855 574.493ZM266.222 575.654C275.764 579.452 287.127 579.658 299.14 574.158L300.389 576.886C287.647 582.72 275.431 582.548 265.112 578.441L266.222 575.654ZM243.139 553.425C247.767 563.324 255.97 571.573 266.222 575.654L265.112 578.441C254.087 574.053 245.343 565.221 240.422 554.695L243.139 553.425ZM241.491 521.483C237.482 532.038 238.513 543.528 243.139 553.425L240.422 554.695C235.498 544.163 234.353 531.827 238.687 520.417L241.491 521.483ZM270.37 494.929C254.566 501.222 245.494 510.945 241.491 521.483L238.687 520.417C243.034 508.973 252.804 498.695 269.26 492.142L270.37 494.929ZM268.791 495.019L268.421 494.09L271.208 492.981L271.578 493.91L268.791 495.019ZM239.622 520.772C243.854 509.63 253.391 499.537 269.63 493.071L270.74 495.858C255.154 502.064 246.314 511.602 242.426 521.838L239.622 520.772ZM241.328 554.272C236.503 543.952 235.396 531.898 239.622 520.772L242.426 521.838C238.525 532.108 239.518 543.317 244.045 553.001L241.328 554.272ZM265.482 577.512C254.715 573.227 246.151 564.589 241.328 554.272L244.045 553.001C248.576 562.691 256.597 570.747 266.592 574.725L265.482 577.512ZM302.698 574.639C289.214 581.704 276.273 581.807 265.482 577.512L266.592 574.725C276.54 578.684 288.568 578.656 301.305 571.982L302.698 574.639ZM300.712 574.082L300.673 574.007L303.33 572.614L303.369 572.689L300.712 574.082ZM303.703 573.894C303.487 574.093 303.272 574.291 303.057 574.488L301.024 572.283C301.239 572.084 301.455 571.885 301.672 571.686L303.703 573.894ZM294.642 546.057C294.959 556.786 298.429 565.373 303.837 571.827L301.538 573.754C295.669 566.75 291.979 557.504 291.643 546.146L294.642 546.057ZM293.237 544.605L293.245 544.605L293.039 547.598L293.031 547.598L293.237 544.605ZM294.636 546.124L294.631 546.206L291.638 545.997L291.644 545.915L294.636 546.124ZM294.636 545.858C294.637 545.898 294.638 545.938 294.639 545.978L291.64 546.062C291.639 546.02 291.638 545.978 291.637 545.936L294.636 545.858ZM294.633 545.734C294.634 545.776 294.635 545.817 294.636 545.858L291.637 545.936C291.636 545.892 291.635 545.849 291.634 545.805L294.633 545.734ZM293.194 547.269L293.169 547.269L293.098 544.27L293.123 544.269L293.194 547.269ZM302.355 527.588C298.312 530.957 295.336 536.865 294.654 545.882L291.662 545.656C292.384 536.11 295.581 529.328 300.434 525.284L302.355 527.588ZM316.085 524.241C310.968 523.4 306.133 524.44 302.355 527.588L300.434 525.284C304.992 521.486 310.748 520.324 316.572 521.28L316.085 524.241ZM317.826 523.016L317.749 523.244L314.909 522.277L314.986 522.049L317.826 523.016ZM317.02 524.381C316.671 524.226 316.305 524.082 315.923 523.952L316.89 521.112C317.356 521.271 317.807 521.447 318.241 521.641L317.02 524.381ZM317.339 524.483L317.306 524.476L317.955 521.547L317.988 521.554L317.339 524.483ZM316.198 522.699L316.199 522.692L319.128 523.345L319.126 523.351L316.198 522.699ZM323.365 532.548C322.538 528.785 320.497 525.941 317.048 524.394L318.276 521.657C322.723 523.652 325.298 527.363 326.295 531.905L323.365 532.548ZM321.778 547.759C323.686 542.035 324.284 536.734 323.365 532.548L326.295 531.905C327.373 536.814 326.627 542.7 324.624 548.708L321.778 547.759ZM312.326 562.735C316.415 558.268 319.901 553.392 321.778 547.759L324.624 548.708C322.561 554.899 318.772 560.137 314.539 564.761L312.326 562.735ZM303.061 571.768C306.191 568.891 309.405 565.926 312.326 562.735L314.539 564.761C311.517 568.062 308.209 571.111 305.091 573.976L303.061 571.768ZM306.769 577.643C305.42 576.476 304.144 575.217 302.951 573.864L305.201 571.88C306.303 573.129 307.483 574.294 308.731 575.374L306.769 577.643ZM337.508 588.584C326.115 588.475 315.066 584.818 306.769 577.643L308.731 575.374C316.413 582.016 326.743 585.481 337.537 585.584L337.508 588.584ZM374.014 575.413C363.585 584.362 350.299 588.707 337.508 588.584L337.537 585.584C349.651 585.7 362.219 581.581 372.061 573.136L374.014 575.413ZM367.081 539.376C363.048 551.154 364.669 564.502 374.055 573.172L372.02 575.376C361.536 565.692 359.935 550.985 364.242 538.404L367.081 539.376ZM377.047 526.599C373.377 529.108 369.209 533.16 367.081 539.376L364.242 538.404C366.641 531.398 371.33 526.873 375.353 524.122L377.047 526.599ZM381.816 523.937C380.579 524.483 378.88 525.345 377.047 526.599L375.353 524.122C377.367 522.745 379.234 521.798 380.604 521.193L381.816 523.937ZM383.279 523.346C382.936 523.47 382.435 523.664 381.816 523.937L380.604 521.193C381.29 520.89 381.855 520.671 382.256 520.525L383.279 523.346ZM383.315 523.333C383.303 523.337 383.291 523.341 383.279 523.346L382.256 520.525C382.27 520.52 382.285 520.515 382.299 520.51L383.315 523.333ZM384.253 521.474L384.286 521.675L381.327 522.168L381.294 521.967L384.253 521.474ZM390.272 524.609C388.933 523.311 386.716 522.584 383.02 523.2L382.527 520.241C386.773 519.533 390.097 520.261 392.36 522.454L390.272 524.609ZM392.444 530.823C392.327 528.099 391.649 525.944 390.272 524.609L392.36 522.454C394.544 524.572 395.311 527.656 395.441 530.695L392.444 530.823ZM389.229 547.162C390.81 542.633 392.667 536.035 392.444 530.823L395.441 530.695C395.691 536.521 393.654 543.586 392.062 548.15L389.229 547.162ZM373.548 573.163C380.612 566.829 386.231 558.22 389.198 547.264L392.093 548.048C388.975 559.564 383.046 568.677 375.55 575.397L373.548 573.163ZM374.423 576.12C374.134 575.89 373.851 575.657 373.574 575.42L375.524 573.14C375.774 573.354 376.03 573.565 376.291 573.772L374.423 576.12ZM376.541 575.875L376.463 575.96L374.252 573.933L374.33 573.847L376.541 575.875ZM462.4 571.994C439.289 592.411 401.685 600.971 374.421 575.967L376.449 573.756C402.179 597.353 437.992 589.555 460.413 569.745L462.4 571.994ZM483.412 534.705C482.051 548.467 473.974 561.768 462.4 571.994L460.413 569.745C471.587 559.874 479.16 547.222 480.427 534.41L483.412 534.705ZM391.586 545.991C391.444 546.584 391.295 547.171 391.138 547.752L388.241 546.97C388.391 546.416 388.534 545.857 388.669 545.292L391.586 545.991ZM389.909 547.131L389.778 547.1L390.478 544.183L390.609 544.214L389.909 547.131ZM394.442 530.737C394.655 535.724 393.126 541.705 391.685 546.136L388.832 545.209C390.254 540.837 391.634 535.286 391.444 530.866L394.442 530.737ZM391.664 523.172C393.579 525.029 394.316 527.803 394.442 530.737L391.444 530.866C391.332 528.248 390.684 526.401 389.576 525.327L391.664 523.172ZM383.428 521.118C387.115 520.642 389.833 521.398 391.664 523.172L389.576 525.327C388.604 524.385 386.918 523.693 383.812 524.093L383.428 521.118ZM383.646 522.692C384.077 524.129 383.455 524.18 382.866 523.974C382.779 523.916 382.6 523.768 382.512 523.674C382.412 523.558 382.353 523.453 382.338 523.427C382.297 523.353 382.271 523.292 382.266 523.28C382.249 523.24 382.237 523.208 382.235 523.202C382.228 523.181 382.222 523.165 382.221 523.162C382.218 523.151 382.215 523.143 382.215 523.142C382.213 523.136 382.212 523.132 382.211 523.13C382.21 523.126 382.209 523.122 382.207 523.116C382.203 523.104 382.196 523.081 382.183 523.037L385.056 522.174C385.069 522.217 385.076 522.238 385.078 522.247C385.08 522.252 385.08 522.253 385.08 522.252C385.08 522.252 385.079 522.248 385.077 522.243C385.077 522.241 385.074 522.233 385.071 522.223C385.07 522.22 385.064 522.204 385.057 522.183C385.055 522.177 385.043 522.145 385.026 522.105C385.021 522.093 384.995 522.032 384.954 521.958C384.939 521.932 384.88 521.826 384.78 521.711C384.692 521.617 384.513 521.468 384.426 521.411C383.837 521.205 383.215 521.256 383.646 522.692ZM383.214 521.256L383.215 521.256L384.077 524.129L384.076 524.129L383.214 521.256ZM383.201 521.26L383.206 521.258L384.084 524.127L384.078 524.129L383.201 521.26ZM383.169 521.27L383.194 521.262L384.085 524.127L384.061 524.134L383.169 521.27ZM383.043 521.311C383.095 521.293 383.136 521.28 383.165 521.271L384.065 524.133C384.049 524.138 384.021 524.147 383.982 524.16L383.043 521.311ZM382.597 521.465C382.788 521.396 382.938 521.345 383.043 521.311L383.982 524.16C383.904 524.185 383.782 524.227 383.62 524.286L382.597 521.465ZM381.008 522.107C381.672 521.814 382.215 521.604 382.597 521.465L383.62 524.286C383.296 524.403 382.816 524.589 382.221 524.852L381.008 522.107ZM375.918 524.948C377.872 523.612 379.682 522.693 381.008 522.107L382.221 524.852C381.027 525.379 379.384 526.212 377.611 527.424L375.918 524.948ZM365.189 538.728C367.497 531.985 372.012 527.618 375.918 524.948L377.611 527.424C374.06 529.852 370.065 533.747 368.027 539.7L365.189 538.728ZM372.781 574.717C362.584 565.363 360.962 551.072 365.189 538.728L368.027 539.7C364.077 551.238 365.716 564.165 374.809 572.506L372.781 574.717ZM390.98 548.326C387.866 559.43 382.078 568.228 374.794 574.731L372.796 572.493C379.654 566.37 385.132 558.067 388.091 547.516L390.98 548.326ZM390.001 546.494L390.04 546.508L389.031 549.333L388.992 549.32L390.001 546.494ZM391.106 547.856C391.04 548.045 390.974 548.23 390.909 548.411L388.084 547.403C388.146 547.227 388.21 547.049 388.273 546.866L391.106 547.856ZM292.645 545.934C293.323 536.455 296.459 529.899 301.075 526.052L302.995 528.357C299.195 531.523 296.278 537.198 295.637 546.148L292.645 545.934ZM302.274 573.075C296.564 566.245 292.964 557.218 292.642 546.084L295.64 545.998C295.945 556.503 299.326 564.871 304.575 571.151L302.274 573.075ZM313.801 564.085C310.809 567.354 307.547 570.36 304.439 573.217L302.409 571.008C305.529 568.141 308.697 565.218 311.589 562.06L313.801 564.085ZM323.676 548.391C321.674 554.396 317.986 559.514 313.801 564.085L311.589 562.06C315.63 557.645 319.014 552.889 320.83 547.443L323.676 548.391ZM325.318 532.119C326.343 536.787 325.647 542.478 323.676 548.391L320.83 547.443C322.706 541.813 323.254 536.707 322.388 532.763L325.318 532.119ZM317.936 522.601C322.024 524.461 324.387 527.878 325.318 532.119L322.388 532.763C321.626 529.291 319.788 526.74 316.693 525.331L317.936 522.601ZM301.075 526.052C305.686 522.209 311.621 521.199 317.632 522.5L316.998 525.432C311.706 524.287 306.764 525.216 302.995 528.357L301.075 526.052Z" fill="white"/>
<ellipse cx="331.85" cy="380.84" rx="12.5" ry="7.5" transform="rotate(-13.2611 331.85 380.84)" fill="white"/>
<ellipse cx="394.85" cy="380.84" rx="12.5" ry="7.5" transform="rotate(7.53166 394.85 380.84)" fill="white"/>
<path d="M345.35 322.34C345.35 334.767 341.072 356.84 336.101 356.84C331.131 356.84 325.85 334.767 325.85 322.34C325.85 309.914 331.131 311.84 336.101 311.84C341.072 311.84 345.35 309.914 345.35 322.34Z" fill="white"/>
<path d="M375.85 318.948C375.85 331.375 371.571 359.34 366.601 359.34C361.63 359.34 356.35 331.375 356.35 318.948C356.35 306.522 361.63 308.448 366.601 308.448C371.571 308.448 375.85 306.522 375.85 318.948Z" fill="white"/>
<path d="M407.85 321.948C407.85 334.375 403.571 356.448 398.601 356.448C393.63 356.448 388.35 334.375 388.35 321.948C388.35 309.522 393.63 311.448 398.601 311.448C403.571 311.448 407.85 309.522 407.85 321.948Z" fill="white"/>
<ellipse cx="363.85" cy="414.84" rx="7.5" ry="5.5" fill="white"/>
<path d="M364.062 418.209C357.953 426.693 353.135 427.881 343.062 426.209" stroke="white" stroke-width="4" stroke-linecap="round"/>
<path d="M364.806 418.34C370.915 426.824 375.733 428.012 385.806 426.34" stroke="white" stroke-width="4" stroke-linecap="round"/>
<path d="M499.705 293.811C475.58 307.195 468.661 313.455 453.85 337.84" stroke="white" stroke-width="4" stroke-linecap="round"/>
<path d="M236.047 315.466C262.175 317.217 272.189 325.174 280.85 335.34" stroke="white" stroke-width="4" stroke-linecap="round"/>
<path d="M464.35 484.34C464.35 494.148 455.758 502.34 444.85 502.34C433.941 502.34 425.35 494.148 425.35 484.34C425.35 474.533 433.941 466.34 444.85 466.34C455.758 466.34 464.35 474.533 464.35 484.34Z" stroke="white" stroke-width="4"/>
<path d="M309.35 484.34C309.35 494.148 300.758 502.34 289.85 502.34C278.941 502.34 270.35 494.148 270.35 484.34C270.35 474.533 278.941 466.34 289.85 466.34C300.758 466.34 309.35 474.533 309.35 484.34Z" stroke="white" stroke-width="4"/>
<mask id="mask0_4:30" style="mask-type:alpha" maskUnits="userSpaceOnUse" x="117" y="191" width="504" height="504">
<circle cx="369.18" cy="442.523" r="250.023" stroke="black" stroke-width="3"/>
</mask>
<g mask="url(#mask0_4:30)">
<rect x="94.5522" y="296.02" width="557.657" height="404.327" fill="white"/>
</g>
<path d="M117.669 410.951C121.551 417.676 120.526 425.536 115.379 428.508C110.232 431.48 102.912 428.437 99.0296 421.712C95.1469 414.987 85.6766 382.442 96.4978 388.63C107.319 394.818 113.786 404.226 117.669 410.951Z" fill="white"/>
<path d="M179.649 284.787C180.586 292.495 176.563 299.326 170.664 300.043C164.764 300.761 159.221 295.093 158.284 287.385C157.346 279.676 161.384 246.023 168.916 255.956C176.447 265.889 178.711 277.078 179.649 284.787Z" fill="white"/>
<path d="M124.687 414.101C120.804 420.826 121.829 428.687 126.976 431.659C132.123 434.63 139.443 431.588 143.326 424.863C147.209 418.138 156.679 385.593 145.858 391.781C135.036 397.969 128.569 407.376 124.687 414.101Z" fill="white"/>
<path d="M126.354 516.33C132.014 521.646 133.304 529.468 129.236 533.8C125.167 538.132 117.28 537.334 111.62 532.018C105.959 526.702 87.4886 498.282 99.6363 501.079C111.784 503.876 120.694 511.014 126.354 516.33Z" fill="white"/>
<path d="M133.983 517.318C132.209 524.878 135.462 532.107 141.248 533.465C147.034 534.822 153.163 529.794 154.937 522.234C156.71 514.674 156.372 480.781 147.801 489.832C139.229 498.883 135.757 509.758 133.983 517.318Z" fill="white"/>
<path d="M174.113 599.439C180.659 603.617 183.373 611.065 180.175 616.075C176.977 621.084 169.079 621.758 162.533 617.58C155.988 613.402 132.581 588.887 145.037 589.39C157.492 589.893 167.568 595.26 174.113 599.439Z" fill="white"/>
<path d="M181.794 598.999C181.448 606.757 185.981 613.26 191.919 613.525C197.856 613.789 202.949 607.715 203.295 599.957C203.64 592.2 197.043 558.953 190.292 569.433C183.542 579.912 182.139 591.242 181.794 598.999Z" fill="white"/>
<path d="M612.313 397.298C616.196 404.023 615.171 411.884 610.024 414.856C604.877 417.827 597.557 414.784 593.674 408.059C589.792 401.335 580.321 368.789 591.142 374.978C601.964 381.166 608.431 390.573 612.313 397.298Z" fill="white"/>
<path d="M619.331 400.449C615.449 407.174 616.474 415.034 621.621 418.006C626.768 420.978 634.088 417.935 637.97 411.21C641.853 404.485 651.323 371.94 640.502 378.128C629.681 384.316 623.214 393.724 619.331 400.449Z" fill="white"/>
<path d="M606.346 506.441C609.217 513.656 607.069 521.287 601.547 523.485C596.025 525.682 589.22 521.615 586.349 514.4C583.477 507.185 578.803 473.614 588.618 481.299C598.433 488.984 603.474 499.227 606.346 506.441Z" fill="white"/>
<path d="M612.836 510.572C608.023 516.666 607.903 524.592 612.567 528.276C617.232 531.959 624.914 530.005 629.727 523.91C634.539 517.816 648.607 486.979 637.006 491.54C625.405 496.102 617.648 504.478 612.836 510.572Z" fill="white"/>
<path d="M554.522 598.432C556.016 606.053 552.499 613.157 546.666 614.3C540.834 615.443 534.895 610.193 533.402 602.572C531.908 594.952 533.496 561.094 541.728 570.455C549.959 579.816 553.028 590.812 554.522 598.432Z" fill="white"/>
<path d="M560.14 603.687C554.288 608.791 552.71 616.56 556.616 621.039C560.522 625.518 568.433 625.012 574.286 619.909C580.139 614.805 599.645 587.085 587.402 589.433C575.16 591.78 565.993 598.584 560.14 603.687Z" fill="white"/>
<path d="M472.606 656.193C474.1 663.814 470.583 670.918 464.751 672.061C458.918 673.204 452.98 667.954 451.486 660.333C449.992 652.713 451.58 618.855 459.812 628.216C468.044 637.577 471.113 648.573 472.606 656.193Z" fill="white"/>
<path d="M478.225 661.449C472.372 666.552 470.794 674.321 474.701 678.8C478.607 683.279 486.518 682.773 492.37 677.67C498.223 672.566 517.729 644.846 505.487 647.194C493.244 649.541 484.077 656.345 478.225 661.449Z" fill="white"/>
<path d="M271.854 660.394C270.36 668.015 273.877 675.119 279.71 676.262C285.542 677.405 291.481 672.154 292.975 664.534C294.468 656.914 292.88 623.056 284.648 632.417C276.417 641.778 273.348 652.774 271.854 660.394Z" fill="white"/>
<path d="M266.236 665.649C272.088 670.753 273.666 678.522 269.76 683.001C265.854 687.48 257.943 686.974 252.09 681.87C246.237 676.767 226.731 649.047 238.974 651.394C251.216 653.742 260.383 660.546 266.236 665.649Z" fill="white"/>
<path d="M167.335 282.317C161.939 287.901 161.029 295.776 165.303 299.906C169.576 304.036 177.416 302.857 182.812 297.273C188.208 291.689 205.28 262.408 193.282 265.79C181.284 269.172 172.731 276.733 167.335 282.317Z" fill="white"/>
<path d="M129.227 336.342C133.813 339.749 135.416 345.356 132.808 348.866C130.2 352.375 124.369 352.458 119.784 349.051C115.198 345.643 99.3012 326.433 108.415 327.452C117.528 328.471 124.642 332.935 129.227 336.342Z" fill="white"/>
<path d="M119.569 341.259C119.811 346.967 123.549 351.443 127.917 351.258C132.285 351.072 135.63 346.295 135.388 340.587C135.145 334.88 128.186 310.936 123.908 319.047C119.63 327.159 119.326 335.552 119.569 341.259Z" fill="white"/>
<path d="M580.704 332.077C586.385 332.676 590.619 336.686 590.161 341.034C589.703 345.382 584.726 348.422 579.045 347.823C573.364 347.225 549.901 338.783 558.264 335.02C566.628 331.258 575.023 331.479 580.704 332.077Z" fill="white"/>
<path d="M574.894 341.227C578.008 346.016 583.504 347.966 587.169 345.583C590.835 343.199 591.282 337.385 588.168 332.596C585.054 327.806 566.874 310.74 567.322 319.899C567.769 329.059 571.78 336.437 574.894 341.227Z" fill="white"/>
<path d="M609.981 335.93C606.763 339.4 606.307 344.211 608.963 346.674C611.62 349.138 616.382 348.321 619.601 344.85C622.819 341.38 632.857 323.321 625.587 325.532C618.318 327.744 613.2 332.459 609.981 335.93Z" fill="white"/>
<path d="M618.595 338.471C619.263 343.157 616.897 347.37 613.31 347.881C609.724 348.393 606.275 345.008 605.607 340.322C604.939 335.636 606.978 315.076 611.692 321.035C616.407 326.994 617.927 333.785 618.595 338.471Z" fill="white"/>
<path d="M155.509 364.302C153.793 369.26 149.326 372.216 145.532 370.903C141.737 369.59 140.051 364.506 141.766 359.548C143.482 354.59 155.907 335.353 157.536 343.616C159.165 351.879 157.224 359.344 155.509 364.302Z" fill="white"/>
<path d="M149.69 356.976C144.759 358.767 141.872 363.279 143.243 367.053C144.614 370.827 149.723 372.434 154.655 370.643C159.586 368.852 178.629 356.133 170.342 354.631C162.055 353.129 154.621 355.184 149.69 356.976Z" fill="white"/>
<path d="M557.927 284.787C556.99 292.495 561.012 299.326 566.912 300.043C572.812 300.761 578.355 295.093 579.292 287.385C580.229 279.676 576.192 246.023 568.66 255.956C561.128 265.889 558.864 277.078 557.927 284.787Z" fill="white"/>
<path d="M570.241 282.317C575.637 287.901 576.547 295.776 572.273 299.906C567.999 304.036 560.16 302.857 554.764 297.273C549.368 291.689 532.295 262.408 544.293 265.79C556.291 269.172 564.845 276.733 570.241 282.317Z" fill="white"/>
<path d="M100.699 212.498C99.7147 212.88 98.8798 212.586 98.1946 211.617C97.5094 210.647 96.9758 209.67 96.5939 208.685L96.1251 207.477C94.3781 204.036 92.5836 200.87 90.7417 197.981C88.2347 193.908 86.3781 190.716 85.1721 188.403C83.966 186.091 81.8617 181.862 78.8592 175.716C74.1645 166.004 70.4521 158.692 67.722 153.779C64.3468 147.468 62.0381 144.039 60.7959 143.491L62.8031 151.053C64.0225 155.523 64.9794 158.653 65.6739 160.443C67.1323 164.202 68.4118 168.03 69.5123 171.928C70.6127 175.826 71.844 180.857 73.2062 187.022L75.9185 198.79C75.8985 199.003 75.9479 199.396 76.0667 199.968C76.2403 200.415 76.4213 201.015 76.6096 201.765C77.4029 204.341 78.1955 207.843 78.9874 212.273C79.4134 214.167 79.5662 215.755 79.4459 217.037C79.5046 218.25 79.176 218.996 78.46 219.273C77.207 219.76 75.3965 218.145 73.0283 214.43C71.0128 211.093 68.226 205.636 64.6679 198.058C62.4895 193.239 60.842 189.657 59.7254 187.31C58.6089 184.963 57.1397 182.238 55.3178 179.135L53.1661 175.181C50.5749 170.626 48.7905 167.354 47.8128 165.365C46.8351 163.376 45.4929 160.447 43.7859 156.578C42.5505 153.66 41.3919 151.072 40.31 148.814C39.1934 146.467 37.9079 144.083 36.4533 141.661C35.2272 139.562 33.7252 137.416 31.9474 135.223C32.0276 134.368 32.6047 133.732 33.6787 133.315C34.7527 132.899 35.9128 133.633 37.159 135.517C37.3874 135.841 38.2161 137.579 39.6452 140.731L40.3224 142.476C41.1411 144.321 45.6082 152.782 53.7235 167.86C61.0696 181.485 66.6305 192.765 70.4062 201.701C71.0768 202.367 71.7693 203.489 72.4838 205.065C73.3574 206.786 74.0499 207.907 74.5615 208.429L74.6957 208.377L71.3745 193.448C70.8883 192.195 70.3234 189.943 69.6797 186.691C68.4658 181.705 67.1971 176.842 65.8736 172.104C64.2028 166.471 62.6309 161.623 61.1577 157.561C58.926 151.013 57.5725 146.596 57.097 144.309L56.1976 140.796C55.236 137.256 54.7726 135.531 54.8073 135.621L56.8071 133.609C57.4336 133.366 58.0401 133.337 58.6265 133.521C59.2129 133.705 59.6102 134.066 59.8186 134.603C59.9228 134.872 59.9274 135.282 59.8325 135.833C68.1004 146.527 76.1251 160.043 83.9064 176.383L86.1022 181.246C87.7543 185.239 89.4045 188.563 91.0527 191.219C92.4925 193.337 93.6446 194.847 94.5088 195.747C94.4021 192.288 92.4149 184.512 88.5472 172.42C84.6794 160.328 81.0614 149.942 77.693 141.26C77.0679 139.649 76.0443 136.082 74.622 130.559C73.5469 125.93 72.5059 122.318 71.4989 119.722C71.1863 118.917 70.7122 118.226 70.0764 117.649C69.5208 116.217 70.1379 115.153 71.9279 114.459C72.6439 114.181 73.1262 114.097 73.3746 114.206C73.7126 114.281 74.0204 114.677 74.2982 115.393C75.2705 117.899 75.7934 119.91 75.8668 121.426L76.4478 122.127C77.225 126.253 78.4991 130.599 80.2701 135.163C80.5826 135.969 80.8631 136.426 81.1115 136.536L81.3478 139.533L82.1152 140.317C82.055 140.958 82.1291 141.547 82.3375 142.084L83.7299 144.479L83.5355 145.172C84.7509 148.304 87.1015 155.424 90.5872 166.531C94.073 177.639 96.2098 184.738 96.9978 187.831L97.5987 191.768C97.7909 193.856 98.0954 195.437 98.5121 196.511C99.6233 199.375 100.548 202.157 101.287 204.856C101.892 206.681 102.141 208.386 102.036 209.972C101.861 211.378 101.415 212.22 100.699 212.498ZM94.9035 196.366L94.7171 196.284L94.7692 196.418L94.9035 196.366Z" fill="white"/>
<path d="M157.123 190.538C155.744 190.953 154.815 191.033 154.337 190.776C153.886 190.611 153.361 189.867 152.761 188.544C149.911 182.083 148.145 178.054 147.462 176.455L145.11 171.148C142.949 171.298 140.582 171.761 138.008 172.537L132.962 173.758C130.673 174.147 129.023 174.494 128.012 174.799C127.46 174.965 127.208 175.292 127.255 175.779C127.338 176.055 127.333 176.207 127.241 176.235L127.797 179.075C128.204 180.757 128.696 184.219 129.274 189.459C129.562 192.079 129.593 194.176 129.365 195.748C129.101 197.533 128.647 198.522 128.004 198.716C127.452 198.882 126.786 198.832 126.004 198.567C125.194 198.209 124.706 197.755 124.54 197.203L124.553 196.748L124.566 196.293C124.253 189.268 123.678 182.373 122.841 175.606L121.918 166.56L120.413 155.583C120.413 155.583 120.004 152.397 119.186 146.026C118.897 143.406 118.519 139.158 118.051 133.283C117.453 126.645 116.946 122.136 116.529 119.755C116.538 119.451 116.209 117.695 115.542 114.487C114.857 110.884 114.402 108.213 114.179 106.475C113.734 104.003 113.595 102.541 113.759 102.09L114.725 101.799C115.028 101.808 115.364 101.757 115.731 101.646C116.834 101.313 117.578 100.788 117.963 100.07C118.607 99.8764 119.228 99.9399 119.826 100.261C120.488 100.462 120.902 100.839 121.069 101.39C122.399 105.802 124.245 110.76 126.606 116.265C127.861 119.095 128.871 121.448 129.637 123.322C134.223 134.874 143.503 156.341 157.477 187.723L157.602 188.137C157.879 189.056 157.719 189.856 157.123 190.538ZM143.298 167.633C138.388 154.675 130.753 135.67 120.392 110.618L124.046 149.674C125.119 160.882 126.071 167.864 126.903 170.621C127.041 171.081 128.912 170.968 132.516 170.283C136.119 169.597 139.254 168.853 141.919 168.049L143.298 167.633Z" fill="white"/>
<path d="M199.284 180.675C197.88 179.719 195.917 176.774 193.395 171.84C190.873 166.906 188.293 161.296 185.654 155.009C183.671 149.851 181.372 144.816 178.756 139.903C176.551 135.487 174.934 133.398 173.905 133.636L173.485 133.734C171.427 134.21 170.55 135.103 170.853 136.413C172.412 143.146 175.158 153.301 179.09 166.876C181.414 175.206 182.972 180.019 183.764 181.313L183.194 183.958L181.23 184.413L179.848 183.551C168.345 140.689 160.774 111.402 157.136 95.6893C156.898 94.6606 156.749 93.808 156.691 93.1317C156.727 92.4337 156.913 91.75 157.251 91.0805C157.473 90.3392 158.052 89.8603 158.988 89.6437C163.757 88.5391 167.863 88.8201 171.303 90.4869C174.744 92.1536 176.973 95.1847 177.991 99.5804L180.363 109.821C180.775 111.598 180.719 114.124 180.196 117.398C179.767 120.651 179.143 123.702 178.325 126.553L177.314 130.482C179.447 135.014 183.45 143.152 189.324 154.898C195.269 166.528 198.469 172.685 198.922 173.369C199.038 173.44 199.185 173.653 199.365 174.005C199.639 174.336 200.096 174.821 200.737 175.461C201.695 176.619 202.282 177.665 202.499 178.601C202.802 179.91 202.439 180.684 201.411 180.922L199.284 180.675ZM170.287 130.779C172.064 130.367 173.449 129.111 174.44 127.009C175.431 124.907 176.023 122.356 176.215 119.355C176.39 113.303 176.088 108.594 175.308 105.227C174.81 103.076 174.258 101.332 173.653 99.9939C173.141 98.6343 172.42 97.2246 171.491 95.7646C169.611 92.7511 166.566 91.7317 162.357 92.7064C161.89 92.8147 161.613 93.3222 161.528 94.2289C161.42 95.042 161.464 95.8695 161.659 96.7112C163.11 102.977 164.514 108.614 165.871 113.621C167.134 118.65 168.491 124.297 169.942 130.563L170.287 130.779Z" fill="white"/>
<path d="M278.958 173.495C277.057 173.76 275.682 170.849 274.835 164.764L273.525 155.351C271.619 141.659 269.845 131.002 268.202 123.379L267.04 118.162C266.328 115.838 265.847 113.772 265.596 111.966C265.146 108.733 264.83 105.772 264.65 103.083L263.704 94.2008C263.294 91.2532 262.793 89.0452 262.201 87.5768C260.484 89.1727 257.518 109.988 253.301 150.024L253.457 152.183C253.502 154.6 253.387 156.555 253.11 158.047C252.97 159.133 252.655 160.001 252.164 160.65C251.768 161.287 251.237 161.652 250.571 161.744C249.05 161.956 247.904 161.728 247.132 161.06C246.361 160.392 245.862 159.25 245.637 157.633C245.28 155.066 243.117 148.582 239.15 138.182C235.277 127.769 231.226 117.816 226.997 108.325C222.863 98.8198 220.2 93.6172 219.009 92.7169C219.377 96.058 220.089 103.955 221.144 116.409C222.857 138.463 224.587 155.766 226.334 168.317L227.271 174.002C227.062 175.291 226.15 176.048 224.534 176.273C224.248 176.313 223.733 176.094 222.988 175.616C222.257 175.233 221.871 174.899 221.831 174.614C220.64 166.056 219.309 150.927 217.839 129.227C216.486 109.061 215.115 93.9859 213.725 84.0021C213.659 83.5267 213.497 83.0646 213.241 82.6156C212.876 82.0848 212.674 81.6768 212.635 81.3915C212.436 79.9653 213.573 79.0801 216.045 78.736C217.661 78.511 218.711 79.0917 219.195 80.4783C219.84 82.327 220.229 83.7268 220.361 84.6776L220.742 86.3692C221.562 88.7752 223.47 92.3866 226.467 97.2035C228.842 101.041 230.717 104.414 232.092 107.325C232.98 109.527 233.761 111.308 234.435 112.669C236.724 117.972 238.291 121.921 239.137 124.517L241.508 127.968C241.992 129.354 242.886 131.604 244.192 134.718C245.551 138.212 246.579 141.073 247.277 143.303C247.975 145.532 248.47 147.692 248.761 149.784C249.582 148.022 251.179 137.913 253.554 119.457C256.01 100.894 257.321 89.0799 257.489 84.0164C257.557 83.813 257.572 83.5687 257.532 83.2835C257.574 82.8899 257.603 82.4012 257.619 81.8175C257.637 80.555 257.807 78.6413 258.128 76.0765C258.624 74.0689 259.633 72.9593 261.154 72.7475C261.82 72.6548 262.62 72.8342 263.555 73.2856C264.49 73.737 264.998 74.2479 265.077 74.8184C270.596 114.468 274.133 135.348 275.687 137.458L276.719 144.874C276.928 147.074 277.232 149.601 277.629 152.453C278.476 158.539 279.444 163.056 280.533 166.006C280.641 166.088 280.709 166.224 280.735 166.414C280.857 166.591 280.985 166.816 281.12 167.088C281.268 167.455 281.375 167.876 281.441 168.351C281.587 169.397 281.399 170.49 280.879 171.628C280.454 172.754 279.814 173.376 278.958 173.495ZM262.082 86.7211L261.939 86.7409L261.674 86.9233L262.121 87.0063L262.082 86.7211Z" fill="white"/>
<path d="M338.063 163.478C337.295 163.48 336.907 162.185 336.899 159.593C336.494 152.971 336.276 144.619 336.245 134.539C336.225 128.203 336.256 122.539 336.337 117.547L336.428 100.554C336.405 93.2585 336.185 84.2351 335.768 73.4844C334.902 72.7191 334.467 71.7604 334.463 70.6084C334.461 69.9364 334.843 69.2632 335.609 68.5888C336.471 67.8182 337.237 67.4318 337.909 67.4297C338.677 67.4273 339.399 67.8091 340.073 68.575L341.661 69.8661C342.238 70.1523 343.343 70.4369 344.976 70.7199C346.608 71.0028 347.761 71.2872 348.434 71.5732C349.877 72.3367 351.801 73.8187 354.208 76.0193C356.519 78.3162 358.108 79.7513 358.973 80.3246L358.83 80.613C358.928 81.1887 359.652 82.4345 361.002 84.3503C362.062 85.787 362.93 87.1284 363.606 88.3743C365.156 92.7855 365.942 98.4951 365.963 105.503C365.967 106.751 365.923 107.855 365.83 108.815L365.84 112.271L365.844 113.423L365.704 114.864C365.71 116.688 366.002 118.127 366.582 119.181C366.015 122.255 365.313 128.065 364.476 136.612C364.195 139.109 363.724 141.75 363.06 144.536C362.397 147.322 361.588 149.629 360.634 151.456C358.152 156.167 353.989 160.164 348.143 163.447L338.063 163.478ZM347.554 159.272C348.223 158.502 348.845 157.876 349.42 157.395C349.42 157.395 349.755 157.153 350.426 156.671L351.575 155.66C358.276 149.591 361.6 138.061 361.548 121.069L361.539 118.333C361.441 117.565 361.39 116.749 361.387 115.885L360.766 101.343C360.461 95.776 358.763 90.0213 355.673 84.0788C354.224 81.1073 352.248 78.7134 349.747 76.8971C347.341 74.9846 344.794 74.0324 342.106 74.0408C340.954 74.0443 340.405 82.9261 340.46 100.686C340.524 121.23 341.155 139.132 342.355 154.392L342.219 157.129L342.796 157.415L343.09 159.286L347.554 159.272Z" fill="white"/>
<path d="M392.646 165.662C390.921 165.554 390.026 164.489 389.959 162.465L390.076 160.596C390.201 160.123 390.285 159.551 390.327 158.881L389.788 158.27C390.679 156.305 391.185 154.365 391.304 152.449C391.441 150.245 391.495 147.074 391.464 142.936L391.767 133.433C392.065 128.642 392.656 121.465 393.54 111.901C394.454 103.398 395.096 96.1757 395.466 90.2352L395.716 81.594C395.685 78.9951 395.768 76.1147 395.965 72.9528C396.055 71.5156 396.453 70.5305 397.159 69.9973C397.872 69.3684 398.947 69.0987 400.384 69.1881C401.342 69.2478 402.091 69.583 402.63 70.1936C402.815 70.3014 404.193 70.5795 406.762 71.028C409.139 71.4646 411.172 72.024 412.861 72.7063C414.646 73.3945 415.511 74.1698 415.458 75.0322C415.398 75.9903 414.428 76.8918 412.548 77.7366C407.2 75.5761 403.376 74.4242 401.077 74.281L400.304 75.0986C400.346 75.9669 400.266 78.0299 400.063 81.2876C399.807 85.4076 399.481 89.0905 399.087 92.3363C398.782 95.6838 398.502 99.4176 398.245 103.538C398.078 106.22 398.665 107.604 400.007 107.687L402.315 107.687C403.088 107.638 403.905 107.641 404.767 107.695C408.504 107.928 410.319 108.906 410.211 110.631C410.146 111.685 409.85 112.58 409.323 113.317C408.802 113.958 408.062 114.248 407.104 114.189C405.667 114.099 404.589 113.647 403.87 112.833L399.316 111.828L398.597 111.783L397.834 112.457L397.807 112.888C397.897 114.529 397.758 118.32 397.388 124.26C397.155 127.997 396.895 131.396 396.609 134.456L395.83 144.651C395.597 148.388 395.502 152.229 395.545 156.176C395.503 158.385 395.89 159.9 396.705 160.72C397.525 161.445 399.085 161.879 401.385 162.022L403.981 162.039C404.849 161.997 405.81 162.009 406.864 162.074C409.643 162.247 410.993 162.957 410.916 164.202C410.808 165.927 408.647 166.658 404.431 166.396L392.646 165.662Z" fill="white"/>
<path d="M433.171 169.022C431.837 168.865 431.156 167.673 431.128 165.446C431.387 164.897 431.668 163.335 431.971 160.761C433.006 151.989 434.685 138.993 437.008 121.77C439.319 104.643 440.924 92.2658 441.824 84.6387L442.718 79.5242L443.653 75.2846C443.732 74.6173 444.105 74.323 444.773 74.4017C445.249 74.458 445.9 74.6797 446.724 75.067L447.136 75.2606C446.889 77.3581 446.616 79.2592 446.318 80.9641L445.66 86.5414L443.82 102.129C443.376 106.717 442.81 111.918 442.124 117.734C441.972 118.199 441.801 119.242 441.61 120.863L441.112 123.849C440.792 125.745 440.513 127.694 440.277 129.696C440.018 131.889 439.83 133.896 439.711 135.719L439.129 141.885L438.565 142.979L438.725 142.853C438.691 143.139 438.621 143.324 438.514 143.408L438.447 143.98C438.357 144.743 438.421 145.427 438.639 146.033L436.59 159.711L436.489 160.569C436.298 162.189 436.233 163.148 436.294 163.446C436.238 163.922 436.448 164.189 436.925 164.245L444.328 165.409C446.52 165.668 447.993 165.89 448.744 166.075C449.602 166.176 450.126 166.238 450.317 166.261L450.746 166.311C451.223 166.367 451.666 166.71 452.075 167.338C452.495 167.871 452.672 168.423 452.604 168.995C452.469 170.14 451.634 170.669 450.097 170.585C448.487 170.298 444.536 169.783 438.244 169.041L438.513 169.218C437.56 169.105 436.648 169.046 435.779 169.04C434.994 169.141 434.125 169.135 433.171 169.022Z" fill="white"/>
<path d="M478.058 173.54C475.882 173.164 474.687 172.47 474.472 171.458C473.999 171.376 473.613 171.358 473.312 171.404L472.177 171.207C470.096 170.847 468.854 170.145 468.45 169.101C468.565 168.438 469.041 167.936 469.88 167.594L470.712 167.008L474.827 167.72L475.493 167.251L475.998 166.023L476.434 164.345C477.433 158.575 478.184 153.395 478.686 148.805L479.311 143.506L480.821 133.099C481.459 129.41 482.559 123.901 484.12 116.572L487.254 100.162C488.498 92.9726 489.211 87.4452 489.394 83.5796C488.591 83.1485 487.197 82.7609 485.211 82.417L483.625 82.2887C483.041 82.2851 482.418 82.2259 481.756 82.1113C479.959 81.8001 479.199 80.8405 479.478 79.2325C479.543 78.8541 480.034 78.5494 480.951 78.3184C481.868 78.0874 482.61 78.0211 483.178 78.1193C486.772 78.7416 490.334 79.5531 493.863 80.5537C496.022 81.025 498.124 81.8273 500.169 82.9607C501.773 83.823 502.486 84.7744 502.305 85.815C502.273 86.0041 502.065 86.3579 501.683 86.8764L498.371 86.5952C497.807 85.913 496.484 85.3918 494.403 85.0315L493.62 85.3343C493.757 86.2348 493.464 88.7661 492.744 92.9282C491.663 99.1713 490.641 104.791 489.679 109.788L486.472 126.624C485.735 130.881 485.032 136.069 484.362 142.188C483.45 149.143 482.692 154.37 482.086 157.87L481.766 159.714C481.557 160.36 481.362 161.203 481.182 162.244C480.806 164.42 480.718 165.768 480.92 166.291L480.729 166.55C480.565 167.496 481.524 168.149 483.605 168.509C484.456 168.656 485.174 168.732 485.758 168.736L487.886 169.104C490.63 169.579 491.887 170.479 491.657 171.803C491.51 172.654 491.103 173.315 490.437 173.784C489.788 174.159 488.99 174.264 488.044 174.1C487.193 173.953 486.453 173.727 485.823 173.423C485.083 173.198 484.287 173.011 483.436 172.864C482.868 172.766 481.976 172.855 480.759 173.131C479.526 173.502 478.625 173.639 478.058 173.54Z" fill="white"/>
<path d="M524.799 184.289C520.504 183.265 517.451 181.994 515.642 180.477C513.832 178.96 512.759 176.632 512.422 173.492C512.2 170.281 512.484 165.365 513.273 158.743C514.401 149.045 515.588 141.58 516.835 136.351C517.592 133.176 518.647 129.579 520 125.559L522.945 116.934C525.081 110.042 526.853 104.888 528.259 101.473C529.781 97.9873 531.892 95.1351 534.592 92.9168C537.408 90.6273 541.066 89.7723 545.566 90.3517C546.055 90.3697 546.813 90.5011 547.84 90.746C550.735 91.4361 552.027 92.4349 551.715 93.7422C551.582 94.3025 551.132 94.7382 550.367 95.0493C549.718 95.2893 549.066 95.3313 548.413 95.1755L547.045 94.7015L545.818 94.2608C544.231 93.8824 542.661 94.0509 541.109 94.7664C539.65 95.5042 538.266 96.7535 536.958 98.5141C533.884 102.716 531.533 106.991 529.904 111.34C527.754 117.045 526.063 122.07 524.83 126.414L522.118 137.166C521.027 141.742 520.355 145.184 520.101 147.492C520.509 148.675 520.551 150.363 520.226 152.555C520.016 154.676 519.571 157.58 518.889 161.267C518.297 164.579 518.049 167.481 518.146 169.972C518.266 172.369 518.988 174.515 520.312 176.409C521.801 178.442 524.18 179.848 527.449 180.627C530.157 181.273 532.427 180.235 534.26 177.514C536.325 174.651 537.851 171.56 538.839 168.243C540.121 164.108 541.107 160.593 541.797 157.698L543.634 149.994C542.923 148.837 541.4 147.981 539.065 147.424L537.945 147.157C537.456 147.139 536.931 147.063 536.371 146.93C534.129 146.395 533.142 145.568 533.409 144.447C533.788 142.86 535.098 142.333 537.339 142.868C538.926 143.246 540.223 143.604 541.228 143.943L544.276 144.817C545.983 145.521 547.306 146.181 548.244 146.8C549.276 147.44 549.714 148.088 549.558 148.741C549.268 149.955 548.576 151.616 547.482 153.724C546.392 156.227 545.735 157.946 545.513 158.88C544.577 162.802 543.825 166.372 543.255 169.592C542.569 172.883 541.758 176.489 540.823 180.411C534.903 184.132 529.562 185.424 524.799 184.289Z" fill="white"/>
<path d="M583.704 201.727C583.993 200.812 582.764 199.921 580.017 199.055C584.897 181.973 588.535 169.631 590.93 162.032L590.691 161.353L591.63 160.29C592.15 158.642 592.5 156.89 592.682 155.035L590.795 153.836C589.885 153.851 588.926 153.7 587.919 153.383C587.186 153.152 585.748 152.447 583.603 151.267C582.191 150.319 580.844 149.643 579.562 149.239L577.878 149.312C576.868 152.517 575.913 155.387 575.014 157.921C574.114 160.456 573.159 163.326 572.149 166.531L572.251 167.166C571.443 169.73 570.368 173.619 569.027 178.833C567.715 183.955 566.654 187.798 565.846 190.362C565.529 191.369 565.072 192.181 564.475 192.798C563.906 193.324 563.256 193.471 562.524 193.24C560.509 192.606 560.368 189.541 562.099 184.048C563.571 179.378 564.944 175.181 566.219 171.456L570.295 159.001C572.921 150.669 574.197 146.139 574.125 145.412C574.871 144.64 576.052 141.691 577.668 136.564C579.053 132.169 580.558 126.755 582.183 120.322L583.597 114.879L586.698 104.08C586.9 103.439 587.317 102.916 587.947 102.511C588.578 102.106 589.214 102.004 589.855 102.206C591.686 102.783 591.765 105.727 590.092 111.037C588.129 117.264 586.309 122.88 584.63 127.887C582.86 132.865 581.023 138.376 579.118 144.419C578.772 145.517 582.078 147.163 589.037 149.356L589.586 149.53C591.326 150.078 592.663 150.147 593.597 149.737C594.652 149.264 595.439 148.204 595.959 146.556C597.488 141.703 599.159 135.284 600.971 127.3C603.076 118.703 604.792 112.299 606.12 108.087C606.293 107.537 606.666 107.152 607.239 106.93C607.841 106.616 608.463 106.561 609.104 106.763L610.21 107.564C610.822 107.858 611.191 108.125 611.316 108.366C609.065 115.507 605.978 126.261 602.055 140.626C598.103 155.082 595.001 165.881 592.751 173.023C589.345 183.827 586.809 192.993 585.142 200.52L583.704 201.727ZM591.153 147.91L591.342 148.271L591.067 148.184L591.153 147.91Z" fill="white"/>
<path d="M618.053 210.402L619.858 205.387C620.328 203.922 620.912 202.295 621.611 200.507C621.96 199.612 622.302 198.87 622.636 198.279L623.714 195.917C624.063 195.023 624.304 193.88 624.435 192.489C626.777 186.498 630.681 175.191 636.147 158.568C641.403 142.482 645.087 131.605 647.199 125.937C641.656 123.77 637.998 122.186 636.225 121.184C634.611 120.038 633.997 118.973 634.381 117.99C635.212 117.181 636.254 117.021 637.506 117.51C640.188 118.559 644.008 120.258 648.965 122.607C653.439 124.872 657.242 126.615 660.371 127.838L663.188 128.939L666.057 129.906C667.666 130.535 668.244 131.431 667.789 132.593C667.58 133.129 667.092 133.454 666.326 133.567C665.685 133.626 664.962 133.498 664.157 133.183C662.369 132.484 660.526 131.661 658.629 130.713L652.967 128.191C652.609 128.051 652.378 128.116 652.273 128.384C652.079 128.617 651.702 129.449 651.143 130.88C647.753 139.553 643.152 152.906 637.341 170.94C631.196 189.565 626.568 202.856 623.457 210.814C623.213 211.44 622.583 211.864 621.569 212.086C620.644 212.343 619.824 212.331 619.109 212.052L618.053 210.402Z" fill="white"/>
<path d="M652.493 228.873C651.614 228.257 650.879 227.443 650.289 226.43C649.658 225.505 649.48 224.631 649.754 223.806L650.89 223.061C651.239 223.222 651.963 223.714 653.063 224.538C653.862 225.329 654.566 225.865 655.176 226.146C657.095 227.03 659.136 227.073 661.301 226.274C663.507 225.387 665.564 223.904 667.474 221.825C670.784 217.854 673.364 213.863 675.212 209.852C677.985 203.837 679.127 196.541 678.64 187.966C678.221 182.91 677.944 178.924 677.809 176.008C677.673 173.091 677.829 169.886 678.276 166.393C678.79 162.296 679.811 158.591 681.337 155.278C682.784 152.139 685.276 148.795 688.815 145.246C690.524 143.603 692.357 142.492 694.314 141.914C696.399 141.29 698.27 141.359 699.926 142.122C701.06 142.645 701.969 143.539 702.653 144.806C703.425 146.113 703.61 147.203 703.208 148.075C702.887 148.772 702.16 148.86 701.026 148.337C700.677 148.177 700.302 147.845 699.899 147.342C699.497 146.84 699.077 146.488 698.641 146.287C697.334 145.684 695.915 145.665 694.387 146.229C692.859 146.793 691.451 147.783 690.165 149.198C687.632 151.942 685.742 154.665 684.497 157.368C683.733 159.024 683.168 160.825 682.8 162.77C682.646 163.333 682.532 163.809 682.459 164.198C682.385 164.587 682.308 164.868 682.228 165.043L681.807 168.02L681.376 170.675L681.337 173.512C681.318 174.242 681.318 174.93 681.338 175.573C681.486 176.17 681.591 176.747 681.651 177.303L681.955 180.773C682.062 181.457 682.221 183.062 682.43 185.59C682.679 188.03 682.781 190.561 682.736 193.183C682.764 195.416 682.614 197.461 682.287 199.318C681.999 201.089 681.508 203.188 680.812 205.615C680.069 207.915 679.094 210.373 677.889 212.989C675.96 217.174 673.585 220.836 670.764 223.975C667.186 227.611 663.513 229.618 659.745 229.996C657.606 230.278 655.447 229.918 653.267 228.913L652.493 228.873ZM702.253 148.427C702.293 148.34 702.27 148.276 702.183 148.236L702.122 148.367L702.253 148.427Z" fill="white"/>
</svg>
